<?xml version="1.0" encoding="utf-8"?>
<!-- Generator: Adobe Illustrator 22.0.0, SVG Export Plug-In . SVG Version: 6.00 Build 0)  -->
<svg version="1.1" id="Calque_1" xmlns="http://www.w3.org/2000/svg" xmlns:xlink="http://www.w3.org/1999/xlink" x="0px" y="0px"
	 viewBox="0 0 1920 1080" style="enable-background:new 0 0 1920 1080;" xml:space="preserve">
<style type="text/css">
	.st0{fill:#220BAD;}
	.st1{clip-path:url(#SVGID_4_);}
	.st2{fill:#FFFFFF;}
	.st3{fill:#11FCFF;}
	.st4{fill:#FE03C8;}
	.st5{fill:#FEFB3F;}
	.st6{opacity:0.81;fill:#220BAD;}
</style>
<g>
	<rect y="1.5" class="st0" width="1920" height="1077"/>
	<g>
		<defs>
			<rect id="SVGID_1_" y="1.5" width="1920" height="1077"/>
		</defs>
		<clipPath id="SVGID_2_">
			<use xlink:href="#SVGID_1_"  style="overflow:visible;"/>
		</clipPath>
	</g>
</g>
<g>
	<defs>
		<rect id="SVGID_3_" y="1.5" width="1920" height="1077"/>
	</defs>
	<clipPath id="SVGID_4_">
		<use xlink:href="#SVGID_3_"  style="overflow:visible;"/>
	</clipPath>
	<g class="st1">
		<path class="st2" d="M560.3,756.5c-7.3,0-14.1-4.4-16.7-11.6c-3.4-9.2,1.3-19.4,10.5-22.8l295.2-109.1c9.2-3.4,19.4,1.3,22.8,10.5
			c3.4,9.2-1.3,19.4-10.5,22.8L566.4,755.4C564.4,756.1,562.3,756.5,560.3,756.5z"/>
		<path class="st2" d="M588.3,227.8c-7.3,0-14.1-4.4-16.7-11.6c-3.4-9.2,1.3-19.4,10.5-22.8L877.2,84.3c9.2-3.4,19.4,1.3,22.8,10.5
			c3.4,9.2-1.3,19.4-10.5,22.8L594.3,226.7C592.3,227.5,590.3,227.8,588.3,227.8z"/>
		<path class="st3" d="M-76.8,992c-7.3,0-14.1-4.4-16.7-11.6c-3.4-9.2,1.3-19.4,10.5-22.8L416.3,773c9.2-3.4,19.4,1.3,22.8,10.5
			c3.4,9.2-1.3,19.4-10.5,22.8L-70.8,990.9C-72.8,991.7-74.8,992-76.8,992z"/>
		<path class="st2" d="M1003.3,592.7c-7.3,0-14.1-4.4-16.7-11.6c-3.4-9.2,1.3-19.4,10.5-22.8l271-100.2c9.2-3.4,19.4,1.3,22.8,10.5
			c3.4,9.2-1.3,19.4-10.5,22.8l-271,100.2C1007.3,592.3,1005.3,592.7,1003.3,592.7z"/>
		<path class="st2" d="M-288.7,419c-7.3,0-14.1-4.4-16.7-11.6c-3.4-9.2,1.3-19.4,10.5-22.8l431.2-159.4c9.2-3.4,19.4,1.3,22.8,10.5
			c3.4,9.2-1.3,19.4-10.5,22.8l-431.2,159.4C-284.6,418.6-286.7,419-288.7,419z"/>
		<path class="st2" d="M-33.7,1108.7c-7.3,0-14.1-4.4-16.7-11.6c-3.4-9.2,1.3-19.4,10.5-22.8l431.3-159.5
			c9.2-3.4,19.4,1.3,22.8,10.5c3.4,9.2-1.3,19.4-10.5,22.8l-431.3,159.5C-29.6,1108.3-31.7,1108.6-33.7,1108.7z"/>
		<path class="st2" d="M1571.1,129.1c-7.3,0-14.1-4.4-16.7-11.6c-3.4-9.2,1.3-19.4,10.5-22.8l431.3-159.5
			c9.2-3.4,19.4,1.3,22.8,10.5c3.4,9.2-1.3,19.4-10.5,22.8L1577.1,128C1575.1,128.7,1573.1,129.1,1571.1,129.1z"/>
		<path class="st3" d="M534.6,898.5c-7.3,0-14.1-4.4-16.7-11.6c-3.4-9.2,1.3-19.4,10.5-22.8l431.3-159.5c9.2-3.4,19.4,1.3,22.8,10.5
			c3.4,9.2-1.3,19.4-10.5,22.8L540.7,897.4C538.7,898.2,536.6,898.5,534.6,898.5z"/>
		<path class="st4" d="M1092.8,692.1c-7.3,0-14.1-4.4-16.7-11.6c-3.4-9.2,1.3-19.4,10.5-22.8l174.6-64.5c9.2-3.4,19.4,1.3,22.8,10.5
			c3.4,9.2-1.3,19.4-10.5,22.8L1098.9,691C1096.9,691.8,1094.8,692.1,1092.8,692.1z"/>
		<path class="st4" d="M1475.2,677.4c-7.3,0-14.1-4.4-16.7-11.6c-3.4-9.2,1.3-19.4,10.5-22.8l174.6-64.5c9.2-3.4,19.4,1.3,22.8,10.5
			c3.4,9.2-1.3,19.4-10.5,22.8l-174.6,64.5C1479.3,677,1477.3,677.3,1475.2,677.4z"/>
		<path class="st4" d="M983.8,80.3c-7.3,0-14.1-4.4-16.7-11.6c-3.4-9.2,1.3-19.4,10.5-22.8l174.6-64.5c9.2-3.4,19.4,1.3,22.8,10.5
			c3.4,9.2-1.3,19.4-10.5,22.8L989.9,79.2C987.9,80,985.8,80.3,983.8,80.3z"/>
		<path class="st2" d="M730.7,1216.1c-7.3,0-14.1-4.4-16.7-11.6c-3.4-9.2,1.3-19.4,10.5-22.8l295.3-109.2
			c9.2-3.4,19.4,1.3,22.8,10.5c3.4,9.2-1.3,19.4-10.5,22.8L736.8,1215C734.8,1215.7,732.8,1216.1,730.7,1216.1z"/>
		<path class="st2" d="M1614.2,1021.5c-7.3,0-14.1-4.4-16.7-11.6c-3.4-9.2,1.3-19.4,10.5-22.8l295.3-109.2
			c9.2-3.4,19.4,1.3,22.8,10.5c3.4,9.2-1.3,19.4-10.5,22.8l-295.3,109.2C1618.3,1021.1,1616.2,1021.4,1614.2,1021.5z"/>
		<path class="st2" d="M1703.4-52.3c-7.3,0-14.1-4.4-16.7-11.6c-3.4-9.2,1.3-19.4,10.5-22.8l295.3-109.2c9.2-3.4,19.4,1.3,22.8,10.5
			c3.4,9.2-1.3,19.4-10.5,22.8L1709.4-53.4C1707.4-52.6,1705.4-52.3,1703.4-52.3z"/>
		<path class="st3" d="M93.2,1451.8c-7.3,0-14.1-4.4-16.7-11.6c-3.4-9.2,1.3-19.4,10.5-22.8l499.7-184.8c9.2-3.4,19.4,1.3,22.8,10.5
			c3.4,9.2-1.3,19.4-10.5,22.8L99.2,1450.7C97.2,1451.5,95.2,1451.8,93.2,1451.8z"/>
		<path class="st3" d="M994.6,982.7c-7.3,0-14.1-4.4-16.7-11.6c-3.4-9.2,1.3-19.4,10.5-22.8L1488,763.5c9.2-3.4,19.4,1.3,22.8,10.5
			c3.4,9.2-1.3,19.4-10.5,22.8l-499.7,184.8C998.6,982.3,996.6,982.7,994.6,982.7z"/>
		<path class="st3" d="M1419,310c-7.3,0-14.1-4.4-16.7-11.6c-3.4-9.2,1.3-19.4,10.5-22.8l499.7-184.8c9.2-3.4,19.4,1.3,22.8,10.5
			c3.4,9.2-1.3,19.4-10.5,22.8L1425,308.9C1423,309.7,1421,310,1419,310z"/>
		<path class="st2" d="M1174,1052.2c-7.3,0-14.1-4.4-16.7-11.6c-3.4-9.2,1.3-19.4,10.5-22.8l352.8-130.4c9.2-3.4,19.4,1.3,22.8,10.5
			c3.4,9.2-1.3,19.4-10.5,22.8L1180,1051.1C1178,1051.8,1176,1052.2,1174,1052.2z"/>
		<path class="st5" d="M703.5,1354.9c-7.3,0-14.1-4.4-16.7-11.6c-3.4-9.2,1.3-19.4,10.5-22.8l431.4-159.5
			c9.2-3.4,19.4,1.3,22.8,10.5c3.4,9.2-1.3,19.4-10.5,22.8l-431.4,159.5C707.6,1354.6,705.5,1354.9,703.5,1354.9z"/>
		<path class="st5" d="M629.3,83.5c-7.3,0-14.1-4.4-16.7-11.6c-3.4-9.2,1.3-19.4,10.5-22.8l431.4-159.5c9.2-3.4,19.4,1.3,22.8,10.5
			c3.4,9.2-1.3,19.4-10.5,22.8L635.4,82.4C633.4,83.1,631.3,83.5,629.3,83.5z"/>
		<path class="st5" d="M1177.6,141.4c-7.3,0-14.1-4.4-16.7-11.6c-3.4-9.2,1.3-19.4,10.5-22.8l431.4-159.5
			c9.2-3.4,19.4,1.3,22.8,10.5c3.4,9.2-1.3,19.4-10.5,22.8l-431.4,159.5C1181.6,141,1179.6,141.3,1177.6,141.4z"/>
		<path class="st4" d="M1261.9,1148.5c-7.3,0-14.1-4.4-16.7-11.6c-3.4-9.2,1.3-19.4,10.5-22.8l258.9-95.7
			c9.2-3.4,19.4,1.3,22.8,10.5c3.4,9.2-1.3,19.4-10.5,22.8l-258.9,95.7C1266,1148.1,1263.9,1148.5,1261.9,1148.5z"/>
		<path class="st5" d="M-245.6,535.6c-7.3,0-14.1-4.4-16.7-11.6c-3.4-9.2,1.3-19.4,10.5-22.8l700.3-258.9
			c9.2-3.4,19.4,1.3,22.8,10.5c3.4,9.2-1.3,19.4-10.5,22.8l-700.3,258.9C-241.5,535.2-243.6,535.6-245.6,535.6z"/>
		<path class="st5" d="M8.2,1221.9c-7.3,0-14.1-4.4-16.7-11.6c-3.4-9.2,1.3-19.4,10.5-22.8l700.3-258.9c9.2-3.4,19.4,1.3,22.8,10.5
			c3.4,9.2-1.3,19.4-10.5,22.8L14.3,1220.8C12.3,1221.6,10.2,1221.9,8.2,1221.9z"/>
		<path class="st5" d="M1371.6,591.5c-7.3,0-14.1-4.4-16.7-11.6c-3.4-9.2,1.3-19.4,10.5-22.8l700.3-258.9
			c9.2-3.4,19.4,1.3,22.8,10.5c3.4,9.2-1.3,19.4-10.5,22.8l-700.3,258.9C1375.7,591.1,1373.6,591.5,1371.6,591.5z"/>
		<path class="st2" d="M864,905.5c-7.3,0-14.1-4.4-16.7-11.6c-3.4-9.2,1.3-19.4,10.5-22.8l515.4-190.6c9.2-3.4,19.4,1.3,22.8,10.5
			c3.4,9.2-1.3,19.4-10.5,22.8L870,904.4C868,905.1,866,905.5,864,905.5z"/>
		<path class="st4" d="M1059.2,443.2c-7.3,0-14.1-4.4-16.7-11.6c-3.4-9.2,1.3-19.4,10.5-22.8l253.1-93.6c9.2-3.4,19.4,1.3,22.8,10.5
			c3.4,9.2-1.3,19.4-10.5,22.8l-253.1,93.6C1063.2,442.9,1061.2,443.2,1059.2,443.2z"/>
		<path class="st5" d="M-120.7,879.5c-7.3,0-14.1-4.4-16.7-11.6c-3.4-9.2,1.3-19.4,10.5-22.8l445.2-164.6
			c9.2-3.4,19.4,1.3,22.8,10.5c3.4,9.2-1.3,19.4-10.5,22.8l-445.2,164.6C-116.6,879.1-118.7,879.5-120.7,879.5z"/>
		<path class="st5" d="M1579.9,769.2c-7.3,0-14.1-4.4-16.7-11.6c-3.4-9.2,1.3-19.4,10.5-22.8l445.2-164.6
			c9.2-3.4,19.4,1.3,22.8,10.5c3.4,9.2-1.3,19.4-10.5,22.8l-445.2,164.6C1583.9,768.8,1581.9,769.2,1579.9,769.2z"/>
		<path class="st2" d="M473.3,659.9c-7.3,0-14.1-4.4-16.7-11.6c-3.4-9.2,1.3-19.4,10.5-22.8l445.2-164.6c9.2-3.4,19.4,1.3,22.8,10.5
			c3.4,9.2-1.3,19.4-10.5,22.8L479.3,658.8C477.3,659.5,475.3,659.9,473.3,659.9z"/>
		<path class="st2" d="M-161.8,768.3c-7.3,0-14.1-4.4-16.7-11.6c-3.4-9.2,1.3-19.4,10.5-22.8l277.5-102.6
			c9.2-3.4,19.4,1.3,22.8,10.5c3.4,9.2-1.3,19.4-10.5,22.8l-277.5,102.6C-157.8,767.9-159.8,768.3-161.8,768.3z"/>
		<path class="st3" d="M235,621.5c-7.3,0-14.1-4.4-16.7-11.6c-3.4-9.2,1.3-19.4,10.5-22.8l277.5-102.6c9.2-3.4,19.4,1.3,22.8,10.5
			c3.4,9.2-1.3,19.4-10.5,22.8L241.1,620.4C239.1,621.2,237.1,621.5,235,621.5z"/>
		<path class="st3" d="M247,222.9c-7.3,0-14.1-4.4-16.7-11.6c-3.4-9.2,1.3-19.4,10.5-22.8L518.3,85.8c9.2-3.4,19.4,1.3,22.8,10.5
			c3.4,9.2-1.3,19.4-10.5,22.8L253.1,221.8C251.1,222.5,249.1,222.9,247,222.9z"/>
		<path class="st4" d="M-204.9,645.8c-7.3,0-14.1-4.4-16.7-11.6c-3.4-9.2,1.3-19.4,10.5-22.8l854.2-315.8
			c9.2-3.4,19.4,1.3,22.8,10.5c3.4,9.2-1.3,19.4-10.5,22.8l-854.2,315.8C-200.8,645.4-202.8,645.8-204.9,645.8z"/>
		<path class="st3" d="M776.6,286.4c-7.3,0-14.1-4.4-16.7-11.6c-3.4-9.2,1.3-19.4,10.5-22.8l275.2-101.8c9.2-3.4,19.4,1.3,22.8,10.5
			c3.4,9.2-1.3,19.4-10.5,22.8L782.7,285.3C780.7,286,778.7,286.4,776.6,286.4z"/>
		<path class="st3" d="M776.6,286.4c-7.3,0-14.1-4.4-16.7-11.6c-3.4-9.2,1.3-19.4,10.5-22.8l275.2-101.8c9.2-3.4,19.4,1.3,22.8,10.5
			c3.4,9.2-1.3,19.4-10.5,22.8L782.7,285.3C780.7,286,778.7,286.4,776.6,286.4z"/>
		<path class="st3" d="M1158.5-113.8c-7.3,0-14.1-4.4-16.7-11.6c-3.4-9.2,1.3-19.4,10.5-22.8l275.2-101.8
			c9.2-3.4,19.4,1.3,22.8,10.5c3.4,9.2-1.3,19.4-10.5,22.8l-275.2,101.8C1162.5-114.1,1160.5-113.8,1158.5-113.8z"/>
		<path class="st3" d="M1158.5,1319.2c-7.3,0-14.1-4.4-16.7-11.6c-3.4-9.2,1.3-19.4,10.5-22.8l275.2-101.8
			c9.2-3.4,19.4,1.3,22.8,10.5c3.4,9.2-1.3,19.4-10.5,22.8l-275.2,101.8C1162.6,1318.9,1160.5,1319.2,1158.5,1319.2z"/>
		<path class="st3" d="M1158.5,1319.2c-7.3,0-14.1-4.4-16.7-11.6c-3.4-9.2,1.3-19.4,10.5-22.8l275.2-101.8
			c9.2-3.4,19.4,1.3,22.8,10.5c3.4,9.2-1.3,19.4-10.5,22.8l-275.2,101.8C1162.6,1318.9,1160.5,1319.2,1158.5,1319.2z"/>
		<path class="st4" d="M48.9,1332.1c-7.3,0-14.1-4.4-16.7-11.6c-3.4-9.2,1.3-19.4,10.5-22.8l855.4-316.3c9.2-3.4,19.4,1.3,22.8,10.5
			c3.4,9.2-1.3,19.4-10.5,22.8L55,1331C53,1331.8,50.9,1332.1,48.9,1332.1z"/>
		<path class="st4" d="M629.8,478.4c-7.3,0-14.1-4.4-16.7-11.6c-3.4-9.2,1.3-19.4,10.5-22.8l855.4-316.3c9.2-3.4,19.4,1.3,22.8,10.5
			c3.4,9.2-1.3,19.4-10.5,22.8L635.8,477.3C633.8,478.1,631.8,478.4,629.8,478.4z"/>
	</g>
</g>
<rect y="1.5" class="st6" width="1920" height="1077"/>
</svg>
